<svg width="512" height="512" viewBox="0 0 512 512" fill="none" xmlns="http://www.w3.org/2000/svg">
<rect x="40" y="24" width="433" height="453.697" rx="41" fill="#FFFAFA" stroke="#56CCF2" stroke-width="8"/>
<path d="M114.471 362.64H128.198V348.909H114.471V362.636M128.198 362.636H141.925V348.906H128.198V362.633M141.926 362.633H155.653V348.902H141.926V362.629M155.653 362.629H169.379V348.899H155.653V362.626M169.379 362.626H183.106V348.895H169.38V362.622M183.107 362.622H196.834V348.892H183.107V362.619M196.835 362.619H210.562V348.888H196.835V362.615M224.288 362.615H238.015V348.885H224.288V362.612M265.469 362.612H279.196V348.881H265.469V362.608M279.197 362.608H292.924V348.878H279.197V362.605M292.924 362.605H306.651V348.874H292.924V362.601M306.651 362.601H320.377V348.871H306.651V362.598M320.377 362.598H334.104V348.867H320.377V362.594M375.286 362.594H389.013V348.864H375.286V362.591M114.43 348.86H128.157V335.13H114.43V348.856M196.791 348.856H210.518V335.13H196.791V348.856ZM224.245 348.856H237.972V335.13H224.245V348.856ZM279.153 348.856H292.88V335.13H279.153V348.856ZM292.88 348.856H306.607V335.13H292.88V348.856ZM334.061 348.856H347.788V335.13H334.061V348.856ZM347.788 348.856H361.515V335.13H347.788V348.856ZM361.515 348.856H375.242V335.13H361.515V348.856ZM114.41 335.133H128.137V321.409H114.41V335.136M141.865 335.136H155.591V321.413H141.865V335.14M155.591 335.14H169.318V321.416H155.591V335.143M169.318 335.143H183.045V321.42H169.319V335.147M196.774 335.147H210.5V321.423H196.774V335.15M224.227 335.15H237.954V321.427H224.227V335.154M265.408 335.154H279.135V321.43H265.408V335.157M279.136 335.157H292.863V321.434H279.136V335.161M292.863 335.161H306.589V321.437H292.863V335.164M306.59 335.164H320.316V321.441H306.59V335.168M114.393 321.444H128.119V307.714H114.393V321.441M141.847 321.441H155.574V307.71H141.847V321.437M155.574 321.437H169.301V307.707H155.574V321.434M169.301 321.434H183.028V307.703H169.302V321.43M196.756 321.43H210.483V307.703H196.756V321.43ZM224.21 321.43H237.937V307.703H224.21V321.43ZM237.937 321.43H251.664V307.703H237.937V321.43ZM265.391 321.43H279.117V307.703H265.391V321.43ZM320.299 321.43H334.026V307.703H320.299V321.43ZM334.026 321.43H347.753V307.703H334.026V321.43ZM347.753 321.43H361.48V307.703H347.753V321.43ZM114.371 307.7H128.098V293.976H114.371V307.703M141.826 307.703H155.553V293.973H141.826V307.7M155.553 307.7H169.28V293.969H155.553V307.696M169.28 307.696H183.007V293.966H169.28V307.693M196.735 307.693H210.462V293.966H196.735V307.693ZM224.189 307.693H237.916V293.966H224.189V307.693ZM237.916 307.693H251.643V293.966H237.916V307.693ZM251.643 307.693H265.37V293.966H251.643V307.693ZM279.097 307.693H292.824V293.966H279.097V307.693ZM306.552 307.693H320.278V293.966H306.552V307.693ZM334.005 307.693H347.732V293.966H334.005V307.693ZM375.187 307.693H388.913V293.966H375.187V307.693ZM388.913 307.693H402.64V293.966H388.913V307.693ZM114.361 293.962H128.088V280.232H114.361V293.959M196.722 293.959H210.449V280.232H196.722V293.959ZM251.63 293.959H265.357V280.232H251.63V293.959ZM292.811 293.959H306.538V280.232H292.811V293.959ZM333.992 293.959H347.719V280.232H333.992V293.959ZM361.447 293.959H375.173V280.232H361.447V293.959ZM375.174 293.959H388.9V280.232H375.174V293.959ZM388.9 293.959H402.627V280.232H388.9V293.959ZM114.334 280.236H128.061V266.512H114.334V280.238M128.061 280.238H141.788V266.515H128.061V280.241M141.789 280.241H155.516V266.518H141.789V280.244M155.516 280.244H169.243V266.521H155.516V280.247M169.243 280.247H182.97V266.523H169.243V280.25M182.97 280.25H196.697V266.523H182.97V280.25ZM196.698 280.25H210.425V266.523H196.698V280.25ZM224.152 280.25H237.879V266.523H224.152V280.25ZM237.879 280.25H251.605V266.523H237.879V280.25ZM279.06 280.25H292.787V266.523H279.06V280.25ZM292.787 280.25H306.514V266.523H292.787V280.25ZM347.695 280.25H361.422V266.523H347.695V280.25ZM375.15 280.25H388.876V266.523H375.15V280.25ZM224.136 266.526H237.863V252.799H224.136V266.526ZM237.863 266.526H251.59V252.799H237.863V266.526ZM251.59 266.526H265.317V252.799H251.59V266.526ZM320.225 266.526H333.952V252.799H320.225V266.526ZM333.952 266.526H347.679V252.799H333.952V266.526ZM347.68 266.526H361.407V252.799H347.68V266.526ZM361.407 266.526H375.133V252.799H361.407V266.526ZM375.134 266.526H388.86V252.799H375.134V266.526ZM388.86 266.526H402.587V252.799H388.86V266.526ZM128.025 252.796H141.752V239.072H128.025V252.799M155.479 252.799H169.206V239.069H155.479V252.796M169.206 252.796H182.933V239.065H169.207V252.792M196.661 252.792H210.388V239.065H196.661V252.792ZM210.388 252.792H224.114V239.065H210.388V252.792ZM224.115 252.792H237.842V239.065H224.115V252.792ZM251.569 252.792H265.296V239.065H251.569V252.792ZM265.296 252.792H279.023V239.065H265.296V252.792ZM306.478 252.792H320.204V239.065H306.478V252.792ZM333.931 252.792H347.658V239.065H333.931V252.792ZM347.659 252.792H361.386V239.065H347.659V252.792ZM375.113 252.792H388.839V239.065H375.113V252.792ZM127.994 239.062H141.721V225.331H127.994V239.058M155.448 239.058H169.175V225.335H155.448V239.062M169.175 239.062H182.902V225.338H169.176V239.065M182.903 239.065H196.63V225.338H182.903V239.065ZM237.811 239.065H251.538V225.338H237.811V239.065ZM292.719 239.065H306.446V225.338H292.719V239.065ZM320.173 239.065H333.9V225.338H320.173V239.065ZM333.9 239.065H347.627V225.338H333.9V239.065ZM347.628 239.065H361.355V225.338H347.628V239.065ZM361.355 239.065H375.082V225.338H361.355V239.065ZM375.082 239.065H388.808V225.338H375.082V239.065ZM388.808 239.065H402.535V225.338H388.808V239.065ZM141.703 225.342H155.43V211.619H141.703V225.345M169.157 225.345H182.884V211.622H169.158V225.349M182.885 225.349H196.612V211.622H182.885V225.349ZM196.612 225.349H210.339V211.622H196.612V225.349ZM210.338 225.349H224.065V211.622H210.338V225.349ZM224.066 225.349H237.793V211.622H224.066V225.349ZM237.793 225.349H251.52V211.622H237.793V225.349ZM251.52 225.349H265.247V211.622H251.52V225.349ZM265.247 225.349H278.974V211.622H265.247V225.349ZM278.974 225.349H292.701V211.622H278.974V225.349ZM347.61 225.349H361.336V211.622H347.61V225.349ZM375.064 225.349H388.79V211.622H375.064V225.349ZM127.945 211.626H141.672V197.895H127.945V211.622M141.672 211.622H155.399V197.892H141.672V211.619M169.126 211.619H182.853V197.888H169.127V211.615M182.854 211.615H196.581V197.888H182.854V211.615ZM224.035 211.615H237.762V197.888H224.035V211.615ZM237.762 211.615H251.489V197.888H237.762V211.615ZM251.489 211.615H265.216V197.888H251.489V211.615ZM292.67 211.615H306.397V197.888H292.67V211.615ZM333.851 211.615H347.578V197.888H333.851V211.615ZM347.579 211.615H361.306V197.888H347.579V211.615ZM361.306 211.615H375.032V197.888H361.306V211.615ZM375.033 211.615H388.759V197.888H375.033V211.615ZM388.759 211.615H402.486V197.888H388.759V211.615ZM114.193 197.885H127.92V184.161H114.193V197.888M127.92 197.888H141.647V184.158H127.92V197.885M141.648 197.885H155.375V184.154H141.648V197.881M155.375 197.881H169.102V184.151H155.375V197.878M169.102 197.878H182.828V184.147H169.102V197.874M196.557 197.874H210.284V184.147H196.557V197.874ZM210.283 197.874H224.01V184.147H210.283V197.874ZM224.011 197.874H237.737V184.147H224.011V197.874ZM278.919 197.874H292.646V184.147H278.919V197.874ZM292.646 197.874H306.373V184.147H292.646V197.874ZM320.1 197.874H333.826V184.147H320.1V197.874ZM347.554 197.874H361.281V184.147H347.554V197.874ZM375.009 197.874H388.735V184.147H375.009V197.874ZM237.719 184.144H251.445V170.417H237.719V184.144ZM265.172 184.144H278.899V170.417H265.172V184.144ZM114.159 170.42H127.886V156.697H114.159V170.424M127.886 170.424H141.613V156.7H127.886V170.427M141.613 170.427H155.34V156.704H141.613V170.431M155.34 170.431H169.067V156.707H155.34V170.434M169.067 170.434H182.794V156.711H169.068V170.438M182.795 170.438H196.522V156.711H182.795V170.438ZM196.522 170.438H210.249V156.711H196.522V170.438ZM223.976 170.438H237.703V156.711H223.976V170.438ZM251.43 170.438H265.157V156.711H251.43V170.438ZM278.885 170.438H292.611V156.711H278.885V170.438ZM306.339 170.438H320.065V156.711H306.339V170.438ZM320.065 170.438H333.792V156.711H320.065V170.438ZM333.792 170.438H347.519V156.711H333.792V170.438ZM347.52 170.438H361.247V156.711H347.52V170.438ZM361.247 170.438H374.974V156.711H361.247V170.438ZM374.974 170.438H388.7V156.711H374.974V170.438ZM388.7 170.438H402.427V156.711H388.7V170.438ZM114.106 156.714H127.833V142.984H114.106V156.711M196.468 156.711H210.195V142.984H196.468V156.711ZM223.921 156.711H237.648V142.984H223.921V156.711ZM265.102 156.711H278.829V142.984H265.102V156.711ZM278.83 156.711H292.557V142.984H278.83V156.711ZM306.284 156.711H320.01V142.984H306.284V156.711ZM388.646 156.711H402.373V142.984H388.646V156.711ZM114.08 142.981H127.807V129.254H114.08V142.981M141.534 142.981H155.261V129.255H141.534V142.982M155.261 142.982H168.988V129.256H155.261V142.983M168.988 142.983H182.715V129.256H168.989V142.983M196.443 142.983H210.17V129.257H196.443V142.984M237.624 142.984H251.351V129.258H237.624V142.985M306.26 142.985H319.986V129.259H306.26V142.985M333.713 142.985H347.44V129.259H333.713V142.986M347.44 142.986H361.167V129.26H347.44V142.987M361.167 142.987H374.894V129.261H361.167V142.988M388.621 142.988H402.348V129.261H388.621V142.988M114.055 129.262H127.782V115.535H114.055V129.262ZM141.51 129.262H155.236V115.535H141.51V129.262ZM155.236 129.262H168.963V115.535H155.236V129.262ZM168.963 129.262H182.69V115.535H168.964V129.262M196.419 129.262H210.145V115.535H196.419V129.262ZM223.872 129.262H237.599V115.535H223.872V129.262ZM237.599 129.262H251.326V115.535H237.599V129.262ZM265.053 129.262H278.78V115.535H265.053V129.262ZM306.235 129.262H319.961V115.535H306.235V129.262ZM333.688 129.262H347.415V115.535H333.688V129.262ZM347.416 129.262H361.143V115.535H347.416V129.262ZM361.143 129.262H374.87V115.535H361.143V129.262ZM388.597 129.262H402.323V115.535H388.565V129.262M114.027 115.535H127.754V101.808H114.027V115.535ZM141.482 115.535H155.208V101.808H141.482V115.535ZM155.208 115.535H168.935V101.808H155.208V115.535ZM168.935 115.535H182.662V101.808H168.936V115.535M196.391 115.535H210.117V101.808H196.391V115.535ZM251.298 115.535H265.025V101.808H251.298V115.535ZM265.025 115.535H278.752V101.808H265.025V115.535ZM306.207 115.535H319.933V101.808H306.207V115.535ZM333.66 115.535H347.387V101.808H333.66V115.535ZM347.388 115.535H361.115V101.808H347.388V115.535ZM361.115 115.535H374.842V101.808H361.115V115.535ZM388.569 115.535H402.295V101.808H388.551V115.535M114.013 101.808H127.74V88.0807H114.013V101.808ZM196.374 101.808H210.101V88.0807H196.374V101.808ZM223.828 101.808H237.555V88.0807H223.828V101.808ZM237.555 101.808H251.282V88.0807H237.555V101.808ZM251.282 101.808H265.009V88.0807H251.282V101.808ZM278.736 101.808H292.463V88.0807H278.736V101.808ZM306.191 101.808H319.917V88.0807H306.191V101.808ZM388.552 101.808H402.279V88.0807H388.549V101.808M114.011 88.0807H127.738V74.3538H114.011V88.0807ZM127.738 88.0807H141.465V74.3538H127.738V88.0807ZM141.465 88.0807H155.192V74.3538H141.465V88.0807ZM155.192 88.0807H168.919V74.3538H155.192V88.0807ZM168.919 88.0807H182.646V74.3538H168.92V88.0807M182.647 88.0807H196.374V74.3538H182.643V88.0807M196.371 88.0807H210.098V74.3538H196.374V88.0807M251.282 88.0807H265.009V74.3538H251.285V88.0807M278.74 88.0807H292.467V74.3538H278.736V88.0807M306.191 88.0807H319.917V74.3538H306.194V88.0807M319.92 88.0807H333.647V74.3538H319.923V88.0807M333.65 88.0807H347.377V74.3538H333.661V88.0807M347.389 88.0807H361.115V74.3538H347.385V88.0807M361.112 88.0807H374.839V74.3538H361.115V88.0807M374.843 88.0807H388.569V74.3538H374.839V88.0807M388.565 88.0807H402.292V74.3538H388.576V88.0807H388.565Z" fill="#56CCF2"/>
<path d="M141.4 440.96C137.72 440.96 134.6 440.587 132.04 439.84C129.533 439.04 127.373 437.893 125.56 436.4C123.747 434.907 121.907 432.933 120.04 430.48L126.44 425.12C128.627 428.16 130.813 430.32 133 431.6C135.24 432.88 138.013 433.52 141.32 433.52C145.8 433.52 149.133 432.8 151.32 431.36C153.507 429.92 154.6 427.707 154.6 424.72C154.6 423.067 154.12 421.733 153.16 420.72C152.253 419.653 150.627 418.747 148.28 418C145.987 417.2 142.547 416.32 137.96 415.36C132.733 414.293 128.84 412.427 126.28 409.76C123.72 407.093 122.44 403.547 122.44 399.12C122.44 395.867 123.267 393.04 124.92 390.64C126.573 388.187 128.92 386.32 131.96 385.04C135 383.707 138.573 383.04 142.68 383.04C147.693 383.04 151.773 383.813 154.92 385.36C158.12 386.907 160.653 389.2 162.52 392.24L156.28 397.36C154.2 394.96 152.147 393.227 150.12 392.16C148.147 391.04 145.64 390.48 142.6 390.48C139.187 390.48 136.547 391.253 134.68 392.8C132.813 394.293 131.88 396.427 131.88 399.2C131.88 401.707 132.92 403.627 135 404.96C137.08 406.24 139.96 407.28 143.64 408.08C148.387 409.04 152.173 410.107 155 411.28C157.827 412.4 160.04 414.027 161.64 416.16C163.24 418.293 164.04 421.147 164.04 424.72C164.04 435.547 156.493 440.96 141.4 440.96ZM207.793 440H198.833L195.313 427.12C194.833 425.36 194.086 424.08 193.073 423.28C192.113 422.48 190.539 421.973 188.353 421.76L182.193 428V440H173.473V391.6C173.473 390.32 173.233 389.28 172.753 388.48C172.273 387.68 171.393 386.773 170.113 385.76L175.953 380.72C178.299 381.893 179.926 383.28 180.833 384.88C181.739 386.427 182.193 388.613 182.193 391.44V417.36L196.833 402.4H207.473L194.593 415.44C197.153 415.973 199.153 417.147 200.593 418.96C202.033 420.773 203.259 423.493 204.273 427.12L207.793 440ZM229.995 434.24C232.075 434.24 233.808 433.973 235.195 433.44C236.635 432.853 238.075 431.867 239.515 430.48L244.715 435.28C243.115 437.147 241.115 438.56 238.715 439.52C236.315 440.48 233.355 440.96 229.835 440.96C224.075 440.96 219.808 439.787 217.035 437.44C214.262 435.04 212.875 431.387 212.875 426.48V414.8C212.875 410.693 214.315 407.467 217.195 405.12C220.128 402.72 224.128 401.52 229.195 401.52C234.368 401.52 238.395 402.8 241.275 405.36C244.155 407.867 245.595 411.493 245.595 416.24C245.595 418.427 245.382 420.133 244.955 421.36C244.528 422.587 243.755 423.493 242.635 424.08C241.515 424.613 239.862 424.88 237.675 424.88H221.515V426.48C221.515 431.653 224.342 434.24 229.995 434.24ZM229.115 408.16C226.768 408.16 224.902 408.827 223.515 410.16C222.182 411.493 221.515 413.253 221.515 415.44V418.88H232.955C234.448 418.88 235.488 418.64 236.075 418.16C236.662 417.627 236.955 416.72 236.955 415.44C236.955 413.093 236.262 411.307 234.875 410.08C233.542 408.8 231.622 408.16 229.115 408.16ZM274.416 401.44C278.469 401.44 281.562 402.587 283.696 404.88C285.882 407.12 286.976 410.293 286.976 414.4V440H278.256V415.28C278.256 413.093 277.696 411.387 276.576 410.16C275.509 408.88 273.989 408.24 272.016 408.24C269.722 408.24 267.829 408.987 266.336 410.48C264.842 411.92 263.696 413.84 262.896 416.24V440H254.176V412.4C254.176 411.12 253.936 410.08 253.456 409.28C252.976 408.48 252.096 407.573 250.816 406.56L256.656 401.44C258.362 402.347 259.669 403.333 260.576 404.4C261.482 405.413 262.122 406.64 262.496 408.08C263.616 406.053 265.189 404.453 267.216 403.28C269.242 402.053 271.642 401.44 274.416 401.44ZM317.775 401.44C321.828 401.44 324.922 402.587 327.055 404.88C329.242 407.12 330.335 410.293 330.335 414.4V440H321.615V415.28C321.615 413.093 321.055 411.387 319.935 410.16C318.868 408.88 317.348 408.24 315.375 408.24C313.082 408.24 311.188 408.987 309.695 410.48C308.202 411.92 307.055 413.84 306.255 416.24V440H297.535V412.4C297.535 411.12 297.295 410.08 296.815 409.28C296.335 408.48 295.455 407.573 294.175 406.56L300.015 401.44C301.722 402.347 303.028 403.333 303.935 404.4C304.842 405.413 305.482 406.64 305.855 408.08C306.975 406.053 308.548 404.453 310.575 403.28C312.602 402.053 315.002 401.44 317.775 401.44ZM356.636 434.24C358.716 434.24 360.449 433.973 361.836 433.44C363.276 432.853 364.716 431.867 366.156 430.48L371.356 435.28C369.756 437.147 367.756 438.56 365.356 439.52C362.956 440.48 359.996 440.96 356.476 440.96C350.716 440.96 346.449 439.787 343.676 437.44C340.902 435.04 339.516 431.387 339.516 426.48V414.8C339.516 410.693 340.956 407.467 343.836 405.12C346.769 402.72 350.769 401.52 355.836 401.52C361.009 401.52 365.036 402.8 367.916 405.36C370.796 407.867 372.236 411.493 372.236 416.24C372.236 418.427 372.022 420.133 371.596 421.36C371.169 422.587 370.396 423.493 369.276 424.08C368.156 424.613 366.502 424.88 364.316 424.88H348.156V426.48C348.156 431.653 350.982 434.24 356.636 434.24ZM355.756 408.16C353.409 408.16 351.542 408.827 350.156 410.16C348.822 411.493 348.156 413.253 348.156 415.44V418.88H359.596C361.089 418.88 362.129 418.64 362.716 418.16C363.302 417.627 363.596 416.72 363.596 415.44C363.596 413.093 362.902 411.307 361.516 410.08C360.182 408.8 358.262 408.16 355.756 408.16ZM400.416 401.44C402.87 401.44 405.03 402.107 406.896 403.44L404.656 410.8C403.696 410.16 402.71 409.707 401.696 409.44C400.736 409.12 399.616 408.96 398.336 408.96C394.176 408.96 391.243 412.027 389.536 418.16V440H380.816V412.4C380.816 411.12 380.576 410.08 380.096 409.28C379.616 408.48 378.736 407.573 377.456 406.56L383.296 401.44C385.163 402.4 386.55 403.467 387.456 404.64C388.416 405.76 389.03 407.173 389.296 408.88C390.416 406.587 391.91 404.773 393.776 403.44C395.643 402.107 397.856 401.44 400.416 401.44Z" fill="#828282" fill-opacity="0.49"/>
</svg>
