<svg width="277" height="290" viewBox="0 0 277 290" fill="none" xmlns="http://www.w3.org/2000/svg">
<path d="M49.2891 212.078H57.9112V203.453H49.2891V212.075M57.9112 212.075H66.5333V203.451H57.9112V212.073M66.5338 212.073H75.1559V203.449H66.5338V212.071M75.1559 212.071H83.778V203.447H75.1559V212.069M83.778 212.069H92.4001V203.444H83.7784V212.067M92.4005 212.067H101.023V203.442H92.4005V212.064M101.023 212.064H109.645V203.44H101.023V212.062M118.267 212.062H126.889V203.438H118.267V212.06M144.134 212.06H152.756V203.436H144.134V212.058M152.756 212.058H161.378V203.433H152.756V212.056M161.378 212.056H170V203.431H161.378V212.053M170.001 212.053H178.623V203.429H170.001V212.051M178.623 212.051H187.245V203.427H178.623V212.049M213.112 212.049H221.734V203.425H213.112V212.047M49.2631 203.422H57.8852V194.798H49.2631V203.42M100.996 203.42H109.618V194.798H100.996V203.42ZM118.24 203.42H126.862V194.798H118.24V203.42ZM152.729 203.42H161.351V194.798H152.729V203.42M161.351 203.42H169.973V194.798H161.351V203.42ZM187.217 203.42H195.839V194.798H187.217V203.42ZM195.84 203.42H204.462V194.798H195.84V203.42ZM204.462 203.42H213.084V194.798H204.462V203.42ZM49.2508 194.8H57.8729V186.18H49.2508V194.802M66.4954 194.802H75.1175V186.182H66.4954V194.804M75.1175 194.804H83.7396V186.184H75.1175V194.806M83.7396 194.806H92.3618V186.187H83.7401V194.809M100.985 194.809H109.607V186.189H100.985V194.811M118.229 194.811H126.851V186.191H118.229V194.813M144.095 194.813H152.717V186.193H144.095V194.815M152.718 194.815H161.34V186.195H152.718V194.817M161.34 194.817H169.962V186.198H161.34V194.82M169.963 194.82H178.584V186.2H169.963V194.822M49.2397 186.202H57.8618V177.578H49.2397V186.2M66.4844 186.2H75.1065V177.575H66.4844V186.198M75.1065 186.198H83.7286V177.573H75.1065V186.195M83.7286 186.195H92.3507V177.571H83.7291V186.193M100.974 186.193H109.596V177.571H100.974V186.193ZM118.218 186.193H126.84V177.571H118.218V186.193ZM126.84 186.193H135.462V177.571H126.84V186.193ZM144.084 186.193H152.706V177.571H144.084V186.193ZM178.573 186.193H187.195V177.571H178.573V186.193ZM187.195 186.193H195.817V177.571H187.195V186.193ZM195.818 186.193H204.44V177.571H195.818V186.193ZM49.2265 177.569H57.8486V168.949H49.2265V177.571M66.4712 177.571H75.0933V168.947H66.4712V177.569M75.0933 177.569H83.7154V168.945H75.0933V177.567M83.7154 177.567H92.3375V168.942H83.7158V177.564M100.961 177.564H109.583V168.942H100.961V177.564ZM118.205 177.564H126.827V168.942H118.205V177.564ZM126.827 177.564H135.449V168.942H126.827V177.564ZM135.449 177.564H144.071V168.942H135.449V177.564ZM152.694 177.564H161.316V168.942H152.694V177.564ZM169.938 177.564H178.56V168.942H169.938V177.564ZM187.182 177.564H195.804V168.942H187.182V177.564ZM213.049 177.564H221.671V168.942H213.049V177.564ZM221.671 177.564H230.293V168.942H221.671V177.564ZM49.2199 168.94H57.842V160.316H49.2199V168.938M100.953 168.938H109.575V160.316H100.953V168.938ZM135.441 168.938H144.063V160.316H135.441V168.938ZM161.308 168.938H169.93V160.316H161.308V168.938ZM187.174 168.938H195.796V160.316H187.174V168.938ZM204.419 168.938H213.041V160.316H204.419V168.938ZM213.041 168.938H221.663V160.316H213.041V168.938ZM221.663 168.938H230.285V160.316H221.663V168.938ZM49.2032 160.318H57.8253V151.698H49.2032V160.32M57.8253 160.32H66.4474V151.7H57.8253V160.322M66.4478 160.322H75.0699V151.702H66.4478V160.323M75.0699 160.323H83.692V151.703H75.0699V160.325M83.692 160.325H92.3142V151.705H83.6925V160.327M92.3146 160.327H100.937V151.705H92.3146V160.327ZM100.937 160.327H109.559V151.705H100.937V160.327ZM118.181 160.327H126.803V151.705H118.181V160.327ZM126.803 160.327H135.426V151.705H126.803V160.327ZM152.67 160.327H161.292V151.705H152.67V160.327ZM161.292 160.327H169.914V151.705H161.292V160.327ZM195.781 160.327H204.403V151.705H195.781V160.327ZM213.026 160.327H221.648V151.705H213.026V160.327ZM118.172 151.707H126.794V143.085H118.172V151.707ZM126.794 151.707H135.416V143.085H126.794V151.707ZM135.416 151.707H144.038V143.085H135.416V151.707ZM178.527 151.707H187.149V143.085H178.527V151.707ZM187.149 151.707H195.771V143.085H187.149V151.707ZM195.772 151.707H204.394V143.085H195.772V151.707ZM204.394 151.707H213.016V143.085H204.394V151.707ZM213.016 151.707H221.638V143.085H213.016V151.707ZM221.638 151.707H230.26V143.085H221.638V151.707ZM57.8024 143.083H66.4245V134.463H57.8024V143.085M75.047 143.085H83.6691V134.46H75.047V143.083M83.6691 143.083H92.2912V134.458H83.6696V143.08M100.914 143.08H109.536V134.458H100.914V143.08ZM109.536 143.08H118.158V134.458H109.536V143.08ZM118.158 143.08H126.781V134.458H118.158V143.08ZM135.403 143.08H144.025V134.458H135.403V143.08ZM144.025 143.08H152.647V134.458H144.025V143.08ZM169.892 143.08H178.514V134.458H169.892V143.08ZM187.136 143.08H195.758V134.458H187.136V143.08ZM195.758 143.08H204.38V134.458H195.758V143.08ZM213.003 143.08H221.625V134.458H213.003V143.08ZM57.783 134.456H66.4051V125.832H57.783V134.454M75.0276 134.454H83.6497V125.834H75.0276V134.456M83.6497 134.456H92.2718V125.836H83.6502V134.458M92.2723 134.458H100.894V125.836H92.2723V134.458ZM126.761 134.458H135.383V125.836H126.761V134.458ZM161.25 134.458H169.872V125.836H161.25V134.458ZM178.494 134.458H187.116V125.836H178.494V134.458ZM187.116 134.458H195.739V125.836H187.116V134.458ZM195.739 134.458H204.361V125.836H195.739V134.458ZM204.361 134.458H212.983V125.836H204.361V134.458ZM212.984 134.458H221.605V125.836H212.984V134.458ZM221.605 134.458H230.227V125.836H221.605V134.458ZM66.3941 125.838H75.0162V117.218H66.3941V125.841M83.6383 125.841H92.2604V117.221H83.6387V125.843M92.2608 125.843H100.883V117.221H92.2608V125.843ZM100.883 125.843H109.505V117.221H100.883V125.843ZM109.505 125.843H118.127V117.221H109.505V125.843ZM118.128 125.843H126.75V117.221H118.128V125.843ZM126.75 125.843H135.372V117.221H126.75V125.843ZM135.372 125.843H143.994V117.221H135.372V125.843ZM143.994 125.843H152.616V117.221H143.994V125.843ZM152.616 125.843H161.239V117.221H152.616V125.843M195.727 125.843H204.35V117.221H195.727V125.843ZM212.972 125.843H221.594V117.221H212.972V125.843ZM57.7521 117.223H66.3742V108.599H57.7521V117.221M66.3747 117.221H74.9968V108.596H66.3747V117.218M83.6189 117.218H92.241V108.594H83.6193V117.216M92.2414 117.216H100.864V108.594H92.2414V117.216ZM118.108 117.216H126.73V108.594H118.108V117.216ZM126.73 117.216H135.352V108.594H126.73V117.216ZM135.352 117.216H143.975V108.594H135.352V117.216ZM161.219 117.216H169.841V108.594H161.219V117.216ZM187.086 117.216H195.708V108.594H187.086V117.216ZM195.708 117.216H204.33V108.594H195.708V117.216ZM204.33 117.216H212.952V108.594H204.33V117.216ZM212.953 117.216H221.574V108.594H212.953V117.216ZM221.574 117.216H230.197V108.594H221.574V117.216ZM49.1146 108.592H57.7367V99.972H49.1146V108.594M57.7367 108.594H66.3588V99.9698H57.7367V108.592M66.3592 108.592H74.9814V99.9676H66.3592V108.59M74.9814 108.59H83.6035V99.9654H74.9814V108.588M83.6035 108.588H92.2256V99.9632H83.6039V108.585M100.849 108.585H109.471V99.9632H100.849V108.585ZM109.47 108.585H118.092V99.9632H109.47V108.585ZM118.093 108.585H126.715V99.9632H118.093V108.585ZM152.582 108.585H161.204V99.9632H152.582V108.585ZM161.204 108.585H169.826V99.9632H161.204V108.585ZM178.448 108.585H187.07V99.9632H178.448V108.585ZM195.693 108.585H204.315V99.9632H195.693V108.585ZM212.937 108.585H221.559V99.9632H212.937V108.585ZM126.703 99.961H135.325V91.3389H126.703V99.961ZM143.947 99.961H152.569V91.3389H143.947V99.961ZM49.093 91.3411H57.7151V82.7212H49.093V91.3433M57.7151 91.3433H66.3372V82.7234H57.7151V91.3455M66.3376 91.3455H74.9598V82.7256H66.3376V91.3477M74.9598 91.3477H83.5819V82.7278H74.9598V91.3499M83.5819 91.3499H92.204V82.73H83.5823V91.3521M92.2044 91.3521H100.827V82.73H92.2044V91.3521ZM100.827 91.3521H109.449V82.73H100.827V91.3521ZM118.071 91.3521H126.693V82.73H118.071V91.3521ZM135.315 91.3521H143.938V82.73H135.315V91.3521ZM152.56 91.3521H161.182V82.73H152.56V91.3521ZM169.805 91.3521H178.426V82.73H169.805V91.3521ZM178.426 91.3521H187.049V82.73H178.426V91.3521ZM187.049 91.3521H195.671V82.73H187.049V91.3521ZM195.671 91.3521H204.293V82.73H195.671V91.3521ZM204.293 91.3521H212.915V82.73H204.293V91.3521ZM212.916 91.3521H221.537V82.73H212.916V91.3521ZM221.537 91.3521H230.16V82.73H221.537V91.3521ZM49.0599 82.7322H57.682V74.1079H49.0599V82.73M100.793 82.73H109.415V74.1079H100.793V82.73ZM118.037 82.73H126.659V74.1079H118.037V82.73ZM143.903 82.73H152.525V74.1079H143.903V82.73ZM152.526 82.73H161.148V74.1079H152.526V82.73M169.77 82.73H178.392V74.1079H169.77V82.73ZM221.503 82.73H230.125V74.1079H221.503V82.73ZM49.0432 74.1057H57.6653V65.484H49.0432V74.1062M66.2879 74.1062H74.91V65.4845H66.2879V74.1066M74.91 74.1066H83.5321V65.4849H74.91V74.107M83.5321 74.107H92.1542V65.4854H83.5325V74.1075M100.777 74.1075H109.399V65.4858H100.777V74.1079M126.644 74.1079H135.266V65.4862H126.644V74.1084M169.755 74.1084H178.377V65.4867H169.755V74.1088M186.999 74.1088H195.621V65.4871H186.999V74.1092M195.621 74.1092H204.243V65.4876H195.621V74.1097M204.243 74.1097H212.866V65.488H204.243V74.1101M221.488 74.1101H230.11V65.4884H221.488V74.1106M49.0278 65.4889H57.6499V56.8668H49.0278V65.4889M66.2724 65.4889H74.8945V56.8668H66.2724V65.4889ZM74.8945 65.4889H83.5167V56.8668H74.8945V65.4889ZM83.5167 65.4889H92.1388V56.8668H83.5171V65.4889M100.762 65.4889H109.384V56.8668H100.762V65.4889ZM118.006 65.4889H126.628V56.8668H118.006V65.4889ZM126.628 65.4889H135.25V56.8668H126.628V65.4889ZM143.872 65.4889H152.494V56.8668H143.872V65.4889ZM169.74 65.4889H178.361V56.8668H169.74V65.4889ZM186.983 65.4889H195.605V56.8668H186.983V65.4889ZM195.606 65.4889H204.228V56.8668H195.606V65.4889ZM204.228 65.4889H212.85V56.8668H204.228V65.4889ZM221.472 65.4889H230.094V56.8668H221.452V65.4889M49.0101 56.8668H57.6322V48.2442H49.0101V56.8668M66.2548 56.8668H74.8769V48.2442H66.2548V56.8668ZM74.8769 56.8668H83.499V48.2442H74.8769V56.8668ZM83.499 56.8668H92.1211V48.2442H83.4995V56.8668M100.744 56.8668H109.366V48.2442H100.744V56.8668ZM135.233 56.8668H143.855V48.2442H135.233V56.8668ZM143.855 56.8668H152.477V48.2442H143.855V56.8668ZM169.722 56.8668H178.344V48.2442H169.722V56.8668ZM186.966 56.8668H195.588V48.2442H186.966V56.8668ZM195.588 56.8668H204.21V48.2442H195.588V56.8668ZM204.21 56.8668H212.832V48.2442H204.21V56.8668ZM221.455 56.8668H230.077V48.2442H221.444V56.8668M49.0013 48.2442H57.6234V39.6221H49.0013V48.2442M100.734 48.2442H109.356V39.6221H100.734V48.2442ZM117.978 48.2442H126.6V39.6221H117.978V48.2442ZM126.6 48.2442H135.222V39.6221H126.6V48.2442ZM135.222 48.2442H143.845V39.6221H135.222V48.2442ZM152.467 48.2442H161.089V39.6221H152.467V48.2442M169.712 48.2442H178.333V39.6221H169.712V48.2442ZM221.444 48.2442H230.067V39.6221H221.442V48.2442M49 39.6221H57.6221V31H49V39.6221M57.6221 39.6221H66.2442V31H57.6221V39.6221ZM66.2447 39.6221H74.8668V31H66.2447V39.6221ZM74.8668 39.6221H83.4889V31H74.8668V39.6221ZM83.4889 39.6221H92.111V31H83.4893V39.6221M92.1114 39.6221H100.734V31H92.1092V39.6221M100.732 39.6221H109.354V31H100.734V39.6221M135.222 39.6221H143.845V31H135.225V39.6221M152.469 39.6221H161.091V31H152.467V39.6221M169.712 39.6221H178.333V31H169.714V39.6221M178.335 39.6221H186.957V31H178.337V39.6221M186.96 39.6221H195.582V31H186.966V39.6221M195.589 39.6221H204.211V31H195.586V39.6221M204.209 39.6221H212.831V31H204.211V39.6221M212.833 39.6221H221.455V31H212.831V39.6221M221.452 39.6221H230.074V31H221.459V39.6221H221.452Z" fill="#56CCF2"/>
<path d="M62.912 258.572C59.7227 258.572 57.088 258.104 55.008 257.168C52.9627 256.197 51.0733 254.568 49.34 252.28L51.888 250.044C53.3787 252.055 54.9213 253.476 56.516 254.308C58.1453 255.14 60.208 255.556 62.704 255.556C65.9627 255.556 68.476 254.932 70.244 253.684C72.0467 252.436 72.948 250.685 72.948 248.432C72.948 247.011 72.6187 245.884 71.96 245.052C71.3013 244.22 70.14 243.509 68.476 242.92C66.812 242.296 64.3507 241.655 61.092 240.996C57.5213 240.303 54.8693 239.159 53.136 237.564C51.4373 235.969 50.588 233.837 50.588 231.168C50.588 228.013 51.7147 225.535 53.968 223.732C56.256 221.929 59.3933 221.028 63.38 221.028C66.2227 221.028 68.684 221.531 70.764 222.536C72.844 223.507 74.456 224.945 75.6 226.852L73.052 228.932C71.9773 227.337 70.608 226.124 68.944 225.292C67.3147 224.46 65.4253 224.044 63.276 224.044C60.5373 224.044 58.3533 224.668 56.724 225.916C55.1293 227.164 54.332 228.845 54.332 230.96C54.332 232.832 55.0427 234.323 56.464 235.432C57.8853 236.507 60.2253 237.373 63.484 238.032C66.916 238.725 69.568 239.505 71.44 240.372C73.3467 241.239 74.6987 242.296 75.496 243.544C76.2933 244.757 76.692 246.352 76.692 248.328C76.692 251.656 75.5133 254.204 73.156 255.972C70.7987 257.705 67.384 258.572 62.912 258.572ZM94.9525 242.296C96.6859 242.573 98.0379 243.267 99.0085 244.376C100.014 245.485 100.811 247.149 101.401 249.368L103.637 258H100.049L97.8125 249.368C97.4312 247.877 96.8245 246.803 95.9925 246.144C95.1952 245.451 93.9819 245.035 92.3525 244.896L87.1005 250.148V258H83.6165V225.344C83.6165 224.685 83.5125 224.165 83.3045 223.784C83.0965 223.403 82.6632 222.935 82.0045 222.38L84.3965 220.352C85.4019 220.907 86.0952 221.565 86.4765 222.328C86.8925 223.091 87.1005 224.131 87.1005 225.448V245.884L99.3205 233.56H103.689L94.9525 242.296ZM118.622 255.764C120.113 255.764 121.43 255.539 122.574 255.088C123.718 254.637 124.776 253.909 125.746 252.904L127.93 254.932C126.821 256.18 125.504 257.099 123.978 257.688C122.453 258.277 120.598 258.572 118.414 258.572C115.086 258.572 112.486 257.792 110.614 256.232C108.777 254.637 107.858 252.419 107.858 249.576V241.672C107.858 239.003 108.76 236.905 110.562 235.38C112.4 233.82 114.913 233.04 118.102 233.04C121.361 233.04 123.857 233.855 125.59 235.484C127.358 237.113 128.242 239.419 128.242 242.4C128.242 244.307 127.878 245.624 127.15 246.352C126.457 247.045 125.14 247.392 123.198 247.392H111.342V249.576C111.342 251.656 111.932 253.216 113.11 254.256C114.324 255.261 116.161 255.764 118.622 255.764ZM118.05 235.796C115.97 235.796 114.324 236.351 113.11 237.46C111.932 238.535 111.342 240.008 111.342 241.88V244.844H121.742C122.921 244.844 123.718 244.653 124.134 244.272C124.55 243.856 124.758 243.093 124.758 241.984C124.758 240.043 124.169 238.535 122.99 237.46C121.812 236.351 120.165 235.796 118.05 235.796ZM146.92 232.988C149.381 232.988 151.305 233.733 152.692 235.224C154.079 236.68 154.772 238.708 154.772 241.308V258H151.288V241.828C151.288 239.921 150.82 238.448 149.884 237.408C148.983 236.333 147.717 235.796 146.088 235.796C144.216 235.796 142.587 236.489 141.2 237.876C139.848 239.263 138.877 241.152 138.288 243.544V258H134.804V237.98C134.804 237.356 134.683 236.853 134.44 236.472C134.232 236.056 133.816 235.588 133.192 235.068L135.48 232.988C136.555 233.577 137.283 234.253 137.664 235.016C138.08 235.744 138.288 236.767 138.288 238.084V238.552C139.155 236.749 140.316 235.38 141.772 234.444C143.263 233.473 144.979 232.988 146.92 232.988ZM173.682 232.988C176.143 232.988 178.067 233.733 179.454 235.224C180.84 236.68 181.534 238.708 181.534 241.308V258H178.05V241.828C178.05 239.921 177.582 238.448 176.646 237.408C175.744 236.333 174.479 235.796 172.85 235.796C170.978 235.796 169.348 236.489 167.962 237.876C166.61 239.263 165.639 241.152 165.05 243.544V258H161.566V237.98C161.566 237.356 161.444 236.853 161.202 236.472C160.994 236.056 160.578 235.588 159.954 235.068L162.242 232.988C163.316 233.577 164.044 234.253 164.426 235.016C164.842 235.744 165.05 236.767 165.05 238.084V238.552C165.916 236.749 167.078 235.38 168.534 234.444C170.024 233.473 171.74 232.988 173.682 232.988ZM199.314 255.764C200.804 255.764 202.122 255.539 203.266 255.088C204.41 254.637 205.467 253.909 206.438 252.904L208.622 254.932C207.512 256.18 206.195 257.099 204.67 257.688C203.144 258.277 201.29 258.572 199.106 258.572C195.778 258.572 193.178 257.792 191.306 256.232C189.468 254.637 188.55 252.419 188.55 249.576V241.672C188.55 239.003 189.451 236.905 191.254 235.38C193.091 233.82 195.604 233.04 198.794 233.04C202.052 233.04 204.548 233.855 206.282 235.484C208.05 237.113 208.934 239.419 208.934 242.4C208.934 244.307 208.57 245.624 207.842 246.352C207.148 247.045 205.831 247.392 203.89 247.392H192.034V249.576C192.034 251.656 192.623 253.216 193.802 254.256C195.015 255.261 196.852 255.764 199.314 255.764ZM198.742 235.796C196.662 235.796 195.015 236.351 193.802 237.46C192.623 238.535 192.034 240.008 192.034 241.88V244.844H202.434C203.612 244.844 204.41 244.653 204.826 244.272C205.242 243.856 205.45 243.093 205.45 241.984C205.45 240.043 204.86 238.535 203.682 237.46C202.503 236.351 200.856 235.796 198.742 235.796ZM227.091 232.988C228.374 232.988 229.501 233.3 230.471 233.924L229.535 237.096C228.53 236.507 227.421 236.212 226.207 236.212C224.509 236.212 223.018 237.009 221.735 238.604C220.453 240.199 219.534 242.4 218.979 245.208V258H215.495V237.98C215.495 237.356 215.374 236.853 215.131 236.472C214.923 236.056 214.507 235.588 213.883 235.068L216.223 232.988C217.263 233.577 217.974 234.253 218.355 235.016C218.771 235.744 218.979 236.767 218.979 238.084V239.436C219.777 237.391 220.869 235.813 222.255 234.704C223.677 233.56 225.289 232.988 227.091 232.988Z" fill="#E0E0E0"/>
<rect x="4" y="4" width="269" height="282" rx="41" stroke="#56CCF2" stroke-width="8"/>
</svg>
